<mxfile host="app.diagrams.net" modified="2024-07-23T05:29:02.489Z" agent="Mozilla/5.0 (Windows NT 10.0; Win64; x64) AppleWebKit/537.36 (KHTML, like Gecko) Chrome/126.0.0.0 Safari/537.36" etag="IcdfwKl6a2FUeMuBlAOp" version="24.7.3" type="device">
  <diagram name="Page-1" id="SR3HumEt--0ep6q7ua7f">
    <mxGraphModel dx="1050" dy="1665" grid="1" gridSize="10" guides="1" tooltips="1" connect="1" arrows="1" fold="1" page="1" pageScale="1" pageWidth="850" pageHeight="1100" math="0" shadow="0">
      <root>
        <mxCell id="0" />
        <mxCell id="1" parent="0" />
        <mxCell id="hX2yz_mlaHzC102nUVRB-21" value="PRODUCT" style="swimlane;childLayout=stackLayout;horizontal=1;startSize=50;horizontalStack=0;rounded=1;fontSize=14;fontStyle=0;strokeWidth=2;resizeParent=0;resizeLast=1;shadow=0;dashed=0;align=center;arcSize=4;whiteSpace=wrap;html=1;" vertex="1" parent="1">
          <mxGeometry x="100" y="70" width="170" height="170" as="geometry" />
        </mxCell>
        <mxCell id="hX2yz_mlaHzC102nUVRB-22" value="ID&lt;div&gt;Name&lt;/div&gt;&lt;div&gt;Brand&lt;/div&gt;&lt;div&gt;Price&lt;/div&gt;" style="align=left;strokeColor=none;fillColor=none;spacingLeft=4;fontSize=12;verticalAlign=top;resizable=0;rotatable=0;part=1;html=1;" vertex="1" parent="hX2yz_mlaHzC102nUVRB-21">
          <mxGeometry y="50" width="170" height="120" as="geometry" />
        </mxCell>
        <mxCell id="hX2yz_mlaHzC102nUVRB-23" value="CASHIER" style="swimlane;childLayout=stackLayout;horizontal=1;startSize=50;horizontalStack=0;rounded=1;fontSize=14;fontStyle=0;strokeWidth=2;resizeParent=0;resizeLast=1;shadow=0;dashed=0;align=center;arcSize=4;whiteSpace=wrap;html=1;" vertex="1" parent="1">
          <mxGeometry x="370" y="300" width="160" height="170" as="geometry" />
        </mxCell>
        <mxCell id="hX2yz_mlaHzC102nUVRB-24" value="ID&lt;div&gt;Name&lt;/div&gt;&lt;div&gt;MobilelNumber&lt;/div&gt;&lt;div&gt;Email&lt;/div&gt;&lt;div&gt;JoiningDate&lt;/div&gt;" style="align=left;strokeColor=none;fillColor=none;spacingLeft=4;fontSize=12;verticalAlign=top;resizable=0;rotatable=0;part=1;html=1;" vertex="1" parent="hX2yz_mlaHzC102nUVRB-23">
          <mxGeometry y="50" width="160" height="120" as="geometry" />
        </mxCell>
        <mxCell id="hX2yz_mlaHzC102nUVRB-25" value="TRANSACTION" style="swimlane;childLayout=stackLayout;horizontal=1;startSize=50;horizontalStack=0;rounded=1;fontSize=14;fontStyle=0;strokeWidth=2;resizeParent=0;resizeLast=1;shadow=0;dashed=0;align=center;arcSize=4;whiteSpace=wrap;html=1;" vertex="1" parent="1">
          <mxGeometry x="370" y="-120" width="160" height="160" as="geometry" />
        </mxCell>
        <mxCell id="hX2yz_mlaHzC102nUVRB-26" value="ID&lt;div&gt;Product ID&lt;/div&gt;&lt;div&gt;ItemID&lt;/div&gt;&lt;div&gt;Customer Name&lt;/div&gt;&lt;div&gt;SalePrice&lt;/div&gt;" style="align=left;strokeColor=none;fillColor=none;spacingLeft=4;fontSize=12;verticalAlign=top;resizable=0;rotatable=0;part=1;html=1;" vertex="1" parent="hX2yz_mlaHzC102nUVRB-25">
          <mxGeometry y="50" width="160" height="110" as="geometry" />
        </mxCell>
        <mxCell id="hX2yz_mlaHzC102nUVRB-27" value="CUSTOMER" style="swimlane;childLayout=stackLayout;horizontal=1;startSize=50;horizontalStack=0;rounded=1;fontSize=14;fontStyle=0;strokeWidth=2;resizeParent=0;resizeLast=1;shadow=0;dashed=0;align=center;arcSize=4;whiteSpace=wrap;html=1;" vertex="1" parent="1">
          <mxGeometry x="650" y="80" width="160" height="170" as="geometry" />
        </mxCell>
        <mxCell id="hX2yz_mlaHzC102nUVRB-28" value="ID&amp;nbsp;&lt;div&gt;Product ID&lt;/div&gt;&lt;div&gt;Barcode&lt;/div&gt;" style="align=left;strokeColor=none;fillColor=none;spacingLeft=4;fontSize=12;verticalAlign=top;resizable=0;rotatable=0;part=1;html=1;" vertex="1" parent="hX2yz_mlaHzC102nUVRB-27">
          <mxGeometry y="50" width="160" height="120" as="geometry" />
        </mxCell>
        <mxCell id="hX2yz_mlaHzC102nUVRB-42" value="" style="edgeStyle=entityRelationEdgeStyle;fontSize=12;html=1;endArrow=ERmany;rounded=0;" edge="1" parent="1">
          <mxGeometry width="100" height="100" relative="1" as="geometry">
            <mxPoint x="650" y="150" as="sourcePoint" />
            <mxPoint x="330" y="140" as="targetPoint" />
          </mxGeometry>
        </mxCell>
        <mxCell id="hX2yz_mlaHzC102nUVRB-43" value="Text" style="text;html=1;align=center;verticalAlign=middle;resizable=0;points=[];autosize=1;strokeColor=none;fillColor=none;" vertex="1" parent="1">
          <mxGeometry x="255" y="128" width="50" height="30" as="geometry" />
        </mxCell>
      </root>
    </mxGraphModel>
  </diagram>
</mxfile>
